PathFileType	4	(X/Y/Z)	C:\Users\WrightLab\Desktop\Jo\P4V136.trc
DataRate	CameraRate	NumFrames	NumMarkers	Units	OrigDataRate	OrigDataStartFrame	OrigNumFrames
100.00	100.00	       30	19	mm	100.00	1	       565
Frame#	Time	Headset_Front			Headset_Back			Headset_Left			Headset_Right			Left_Shoulder			Right_Shoulder			Sternum			C7			Left Elbow			Right Elbow			Left Wrist			Right Wrist			Left ASIS			Right ASIS			S2			Left Knee			Right Knee			Left Ankle			Right Ankle			
		X1	Y1	Z1	X2	Y2	Z2	X3	Y3	Z3	X4	Y4	Z4	X5	Y5	Z5	X6	Y6	Z6	X7	Y7	Z7	X8	Y8	Z8	X9	Y9	Z9	X10	Y10	Z10	X11	Y11	Z11	X12	Y12	Z12	X13	Y13	Z13	X14	Y14	Z14	X15	Y15	Z15	X16	Y16	Z16	X17	Y17	Z17	X18	Y18	Z18	X19	Y19	Z19	

1	0.000																															203.86411	852.45001	-1503.22217				79.12094	995.74115	-1476.99866							67.98940	505.08582	-1523.93323	-267.47461	522.91333	-1490.70288							
2	0.010																															204.03561	852.23529	-1499.42590				79.11011	995.68121	-1477.09998							67.39837	504.88150	-1522.20300	-269.78384	524.19781	-1487.09436							
3	0.020																															203.99486	852.73126	-1496.70752				78.46320	995.68280	-1475.38879							67.42657	504.86978	-1521.92761	-272.27664	524.44049	-1482.47522							
4	0.030																															203.89447	853.21729	-1493.47021				78.45614	995.61981	-1475.45410							67.39559	504.63037	-1522.20142	-274.01373	525.73608	-1478.52734							
5	0.040																															203.41991	852.64960	-1488.51355				78.43561	995.49164	-1475.64575							67.34128	504.36133	-1522.69836	-274.98746	525.54498	-1475.56165							
6	0.050																															202.67899	852.47125	-1483.84314				78.45208	995.37323	-1475.48474							67.31361	504.10101	-1522.93665	-276.91446	527.83215	-1470.47522							
7	0.060																															202.28456	852.49115	-1479.03601				78.43571	995.17212	-1475.63342							66.48292	504.30209	-1520.70251	-278.84122	529.42450	-1466.33765							
8	0.070																															200.87137	853.02985	-1474.61633				77.81384	994.96429	-1473.67908							66.41879	504.01190	-1521.29114	-281.53412	532.22131	-1458.94189							
9	0.080																															199.40324	853.77527	-1469.82886				76.74307	994.94031	-1470.05737							65.47018	504.14780	-1519.37488	-282.56390	532.88385	-1457.31067							
10	0.090																															198.40727	853.73389	-1463.49463				75.87786	995.40845	-1467.62854							65.36289	503.68054	-1520.35962	-285.05835	534.13318	-1451.52588							
11	0.100																															197.37686	853.80408	-1456.73340				75.73272	994.31567	-1467.27478							63.73392	504.65298	-1517.49048	-287.43973	536.58447	-1447.48267							
12	0.110																															195.49472	854.83081	-1450.95557				75.67909	993.80273	-1467.76099							63.27446	503.21078	-1519.12366	-290.18277	537.34015	-1443.29688							
13	0.120																															194.11205	855.55072	-1444.29407				74.64075	994.13757	-1465.73938							62.20597	503.50623	-1517.98975	-293.05444	539.13513	-1442.39490							
14	0.130																															192.22580	855.64819	-1436.08862				73.76009	993.22968	-1464.03577							61.08088	503.75275	-1517.70007	-295.76797	540.23718	-1438.13684							
15	0.140																															190.01941	855.81323	-1427.46729				72.70537	992.60394	-1462.02124							60.01517	503.47632	-1517.95020	-297.97763	543.07800	-1433.14417							
16	0.150																															188.45258	856.72760	-1419.97656				72.61537	992.36646	-1462.86230							59.54604	502.79718	-1518.08728	-300.54877	544.14490	-1427.99341							
17	0.160																															185.62856	857.71021	-1412.09412				71.89462	992.13989	-1461.87207							59.40178	502.38809	-1519.42749	-303.11090	545.67548	-1423.98767							
18	0.170																															183.47107	858.22253	-1403.08521				69.80530	992.62244	-1457.35852	-261.69800	1018.68695	-1481.39380				58.62600	502.17758	-1518.74536	-306.57114	545.75690	-1422.73621							
19	0.180																															180.20776	859.68903	-1395.33691				68.79857	992.94153	-1455.99426	-261.94357	1018.28796	-1482.95630				58.48900	501.77353	-1520.01453	-310.50226	548.94501	-1416.59546							
20	0.190																															177.74628	861.14111	-1387.41846				68.48167	991.98352	-1456.34595	-263.24484	1017.49866	-1481.32922				58.39515	501.45428	-1520.87891	-311.77054	547.99786	-1416.29968							
21	0.200																															174.40335	862.48810	-1378.90076				67.08174	991.08081	-1454.64563	-264.81601	1018.20709	-1479.23511				55.93701	504.03189	-1513.80383	-316.29108	552.11542	-1404.82715							
22	0.210																															171.98538	862.24146	-1367.77795				66.37526	989.57233	-1454.23743	-265.05234	1017.83478	-1480.73572				55.11008	504.51639	-1511.96191	-318.78461	552.05750	-1403.18311							
23	0.220																															168.21069	863.96790	-1359.28052				64.21220	989.85779	-1449.43213	-267.61069	1018.10767	-1475.01416				54.39209	505.02881	-1511.06970	-322.15002	553.65625	-1401.44617							
24	0.230																															164.36961	865.91150	-1350.98767				62.65336	989.42181	-1446.55212	-267.98392	1017.32172	-1477.34143				53.24625	505.82028	-1508.91248	-325.08945	553.80859	-1398.12976							
25	0.240																															161.32825	866.52527	-1340.52283				60.95888	989.51862	-1442.33533	-269.15952	1016.70557	-1475.48633				53.07281	505.28326	-1510.50122	-328.36752	555.30804	-1392.70337							
26	0.250																															157.66702	868.45569	-1332.21082				59.46331	990.32465	-1438.87000	-271.64398	1018.65198	-1467.11243				52.28963	505.00027	-1509.89648	-330.71240	557.20917	-1384.98633							
27	0.260																															153.55820	869.83606	-1322.51465				58.30902	990.03503	-1436.35242	-272.68491	1018.06403	-1464.39673				51.33840	504.68750	-1510.22949	-335.05334	558.82648	-1381.35303							
28	0.270																															149.48558	871.28534	-1313.12219				55.67698	990.52216	-1429.44421	-273.35800	1017.49664	-1463.34631				48.84146	505.49103	-1506.36267	-338.25174	559.22821	-1377.57581							
29	0.280																															146.05182	871.71173	-1302.13635				54.70111	988.97363	-1427.19897	-275.23123	1017.84808	-1458.60217				48.58918	504.65656	-1508.65186	-341.64972	560.48553	-1374.17651							
30	0.290																															141.63419	873.55908	-1293.35449				52.80676	988.77930	-1423.03284	-276.97931	1017.30627	-1454.99487				47.19029	503.26880	-1508.40820	-344.59174	560.57776	-1370.02917							
